<?xml version="1.0" standalone="no"?>
<!DOCTYPE svg PUBLIC "-//W3C//DTD SVG 20010904//EN"
 "http://www.w3.org/TR/2001/REC-SVG-20010904/DTD/svg10.dtd">
<svg version="1.0" xmlns="http://www.w3.org/2000/svg"
 width="209.000000pt" height="210.000000pt" viewBox="0 0 209.000000 210.000000"
 preserveAspectRatio="xMidYMid meet">

<g transform="translate(0.000000,210.000000) scale(0.100000,-0.100000)"
fill="#FF9966" stroke="none">
<path d="M940 2074 c-14 -2 -56 -9 -94 -15 -308 -50 -598 -274 -733 -566 -61
-131 -85 -247 -85 -403 0 -156 24 -272 85 -403 135 -291 408 -503 732 -568 87
-17 309 -18 390 0 204 43 371 129 516 268 198 189 301 430 301 703 1 197 -49
366 -154 528 -145 222 -380 382 -642 438 -70 15 -268 27 -316 18z m263 -89
c362 -63 654 -328 748 -680 30 -112 30 -316 0 -430 -20 -78 -111 -275 -134
-292 -7 -5 -66 -6 -132 -2 -66 4 -162 8 -213 8 -89 1 -92 2 -82 21 9 17 21 20
81 20 69 0 70 0 84 33 13 30 12 32 -8 36 -21 4 -21 4 3 10 22 6 27 16 37 71
11 58 17 140 11 140 -2 0 -45 -14 -96 -30 l-92 -29 -54 19 c-115 39 -208 55
-326 53 -146 -1 -204 -17 -208 -57 l-4 -28 51 7 50 7 52 -76 53 -76 61 -1
c109 -2 118 -17 10 -18 l-100 0 -48 70 c-46 68 -49 70 -85 67 l-37 -3 -6 -70
-5 -70 -2 68 c-1 37 -4 67 -6 67 -2 0 -104 -16 -227 -35 -123 -19 -227 -35
-231 -35 -5 0 -8 7 -8 16 0 13 -7 15 -31 10 -17 -3 -38 -6 -45 -6 -8 0 -14 -8
-15 -17 0 -11 -3 -13 -6 -5 -3 8 -17 11 -41 8 l-37 -5 38 11 37 12 0 73 c0 40
-3 73 -6 73 -3 0 -26 -14 -52 -32 -28 -19 -41 -24 -32 -13 14 17 13 18 -2 12
-27 -10 -41 60 -41 203 0 149 22 251 84 379 180 377 595 589 1012 516z m-526
-1272 c-2 -16 -4 -5 -4 22 0 28 2 40 4 28 2 -13 2 -35 0 -50z m-337 -43 c0
-13 -40 -13 -60 0 -11 7 -5 10 23 10 20 0 37 -4 37 -10z m706 -15 c9 -14 24
-25 34 -25 10 0 20 -7 24 -15 4 -12 -3 -15 -33 -15 -21 0 -52 3 -68 6 l-30 6
16 34 c19 40 35 43 57 9z m-476 0 c11 -13 5 -15 -43 -15 -52 0 -75 9 -60 24
13 12 91 6 103 -9z m189 -27 c1 -5 -8 -8 -19 -8 -23 0 -24 3 -8 30 12 18 13
19 20 2 3 -9 7 -20 7 -24z m123 0 c7 -15 4 -18 -21 -18 l-29 0 16 32 c10 22
17 27 20 18 3 -8 9 -23 14 -32z m-152 -63 c686 -127 895 -169 895 -180 -1 -19
-165 -113 -251 -144 l-85 -31 -342 131 c-700 268 -725 279 -727 312 0 5 12 6
28 3 15 -3 232 -44 482 -91z m-70 74 c0 -5 -7 -9 -15 -9 -15 0 -20 12 -9 23 8
8 24 -1 24 -14z m588 -29 c11 -18 10 -20 -18 -20 -32 0 -33 1 -24 24 8 22 27
20 42 -4z m272 -101 c214 -26 217 -26 199 -44 -12 -13 -46 -9 -249 25 -129 22
-239 42 -245 45 -15 7 109 -4 295 -26z"/>
<path d="M1153 1524 c-4 -11 -25 -14 -89 -13 -76 2 -86 0 -126 -26 -100 -66
-190 -138 -200 -160 -6 -13 -22 -26 -37 -30 -25 -6 -280 -190 -311 -224 -8
-10 -34 -30 -57 -45 -24 -16 -53 -38 -65 -50 -13 -12 -43 -34 -66 -50 -24 -15
-41 -30 -39 -33 3 -3 21 7 40 21 19 14 37 26 40 26 4 0 7 -36 7 -80 0 -44 3
-80 8 -80 4 0 24 5 45 11 l37 10 0 95 c0 102 2 100 -53 61 -16 -10 -30 -17
-32 -15 -9 9 646 458 668 458 18 0 -2 -15 -104 -83 l-94 -62 3 -170 c3 -185 0
-177 58 -155 24 9 24 11 26 177 1 114 3 150 8 113 6 -45 8 -51 15 -32 5 16 10
20 15 12 5 -8 22 -4 60 15 44 22 64 26 109 23 63 -4 129 -33 181 -78 l35 -30
-78 36 c-102 48 -191 56 -260 26 l-47 -21 0 -112 c0 -91 3 -110 14 -106 87 33
281 33 401 -1 175 -49 151 -47 248 -18 77 24 87 29 87 50 0 19 -4 22 -24 19
-33 -7 -53 28 -30 52 10 9 24 13 36 9 16 -5 19 -2 15 13 -3 10 -9 33 -12 51
l-7 34 -35 -34 -35 -33 27 54 c31 63 32 62 -50 188 -57 87 -93 114 -169 128
-27 5 -40 14 -46 31 -5 13 -13 24 -17 24 -5 1 -27 5 -51 9 -34 7 -45 5 -49 -5z
m87 -117 c8 -11 32 -47 53 -80 l39 -59 -102 8 c-102 7 -103 7 -135 43 -52 57
-85 98 -85 104 0 9 107 14 165 9 35 -4 55 -11 65 -25z m157 -13 c22 -9 46 -33
73 -76 22 -35 40 -68 40 -74 0 -8 -18 -7 -61 4 -59 14 -62 17 -110 88 -27 40
-49 76 -49 79 0 8 69 -5 107 -21z m-478 -98 c12 -18 21 -38 21 -43 0 -8 -61
-43 -75 -43 -3 0 -5 21 -5 46 0 33 5 51 18 60 9 7 18 14 19 14 1 0 11 -15 22
-34z m-172 -158 c-2 -18 -4 -4 -4 32 0 36 2 50 4 33 2 -18 2 -48 0 -65z m678
-24 c19 -20 16 -43 -7 -58 -35 -22 -74 27 -48 59 16 19 35 19 55 -1z m-215
-43 c16 -31 2 -53 -34 -49 -31 3 -44 23 -32 54 8 21 53 17 66 -5z"/>
<path d="M525 1121 l-170 -117 -3 -97 c-2 -71 1 -97 9 -97 7 0 88 21 181 48
l168 47 0 168 c0 92 -3 167 -7 166 -5 0 -84 -54 -178 -118z m175 11 c0 -4 -74
-48 -165 -97 -90 -49 -162 -91 -160 -93 2 -2 74 33 160 78 86 45 159 79 163
76 3 -3 3 -8 1 -10 -5 -5 -327 -166 -332 -166 -1 0 -3 8 -4 18 -1 12 43 42
160 108 167 95 177 99 177 86z m-62 -159 c-3 -42 -21 -51 -26 -15 -4 29 4 52
18 52 7 0 10 -15 8 -37z m-78 -28 c0 -19 -4 -35 -10 -35 -11 0 -14 53 -3 63
11 12 13 8 13 -28z m-60 -31 c0 -14 -5 -24 -11 -22 -6 2 -10 7 -10 11 1 4 1
16 1 28 0 11 5 17 10 14 6 -3 10 -18 10 -31z m-60 -19 c0 -14 -4 -25 -10 -25
-5 0 -10 11 -10 25 0 14 5 25 10 25 6 0 10 -11 10 -25z m-63 -32 c-3 -10 -5
-4 -5 12 0 17 2 24 5 18 2 -7 2 -21 0 -30z"/>
<path d="M827 1153 c-11 -11 -8 -213 3 -213 6 0 10 43 10 110 0 110 -1 116
-13 103z"/>
<path d="M763 889 c-26 -8 -33 -15 -33 -34 0 -22 3 -25 28 -19 48 10 52 13 52
39 0 27 0 27 -47 14z"/>
<path d="M513 828 c-99 -24 -163 -45 -163 -52 0 -9 49 -4 178 19 163 29 177
33 180 53 4 29 -2 29 -195 -20z"/>
</g>
</svg>
